<svg id="Layer_27" data-name="Layer 27" xmlns="http://www.w3.org/2000/svg" viewBox="0 0 100 98.7"><defs><style>.cls-1{fill:#bf021e;}.cls-2{fill:#133b75;}.cls-3{fill:#fff;}</style></defs><polygon class="cls-1" points="100 98.7 99.93 81.53 0 81.61 0 98.7 100 98.7"/><path class="cls-2" d="M.07,11.84h0L0,79.18,14.92,8.29A86.14,86.14,0,0,0,.07,11.84Z" transform="translate(0 -0.62)"/><path class="cls-2" d="M99.78,57.53a79.23,79.23,0,0,0-3.76-8h1.23c.94,1.81,1.88,3.69,2.75,5.64V.62H51.19L45.91,8.94A80,80,0,0,1,69.15,19.08C70.6,20,72,21,73.35,22H71.47A79.1,79.1,0,0,0,45.26,10L37.65,22H32.73v7.75l-14,22.15H14.27V59L.65,80.49H100V58Z" transform="translate(0 -0.62)"/><path class="cls-2" d="M34.83,8.07a82.4,82.4,0,0,0-9.41-.5L.07,80.56H.14Z" transform="translate(0 -0.62)"/><path class="cls-2" d="M38.38.69H27.81l-2,5.79a85.3,85.3,0,0,1,9.56.58Z" transform="translate(0 -0.62)"/><path class="cls-2" d="M15.13,7.13,16.51.62H0V10.68A81.7,81.7,0,0,1,15.13,7.13Z" transform="translate(0 -0.62)"/><polygon class="cls-3" points="33.82 48.01 33.82 22.45 49.75 22.45 50.25 29.4 41.27 29.4 41.27 32.73 48.59 32.73 48.59 39.75 41.27 39.75 41.27 48.01 33.82 48.01"/><polygon class="cls-3" points="96.09 47.94 88.13 34.69 95.29 22.45 87.11 22.45 84 27.73 80.81 22.45 72.63 22.45 79.94 34.76 72.34 47.94 80.38 47.94 84.07 41.64 87.83 47.94 96.09 47.94"/><path class="cls-3" d="M65.24,41.24l.07-10.86a2.39,2.39,0,0,0-2.38-2.32,2.32,2.32,0,0,0-2.25,2.32V41.24A2.27,2.27,0,0,0,63,43.48,2.3,2.3,0,0,0,65.24,41.24ZM49.89,36A13.11,13.11,0,1,1,63,48.84,13,13,0,0,1,49.89,36Z" transform="translate(0 -0.62)"/><path class="cls-3" d="M36.42,52.83H51.56v5.43H42.29v3.4h7.6v5.07h-7.6v4H51.7v5.43H36.42Z" transform="translate(0 -0.62)"/><polygon class="cls-3" points="52.64 52.21 58.65 52.21 61.48 65.89 64.23 52.21 69.22 52.21 72.12 65.75 75.02 52.21 79.87 52.21 74.37 75.6 69.01 75.6 66.26 62.27 63.58 75.6 58.15 75.6 52.64 52.21"/><path class="cls-3" d="M84.36,68c.43,2,1.66,2.9,3.84,2.9,1.45,0,2.24-.73,2.24-1.6,0-1.73-1.45-1.66-4.13-2.46-4.56-1.37-6.73-3.26-6.73-7.09,0-4.42,3.26-7.75,8.62-7.75a7.79,7.79,0,0,1,8,5.86L91,59.63a3.12,3.12,0,0,0-3.26-2.39,1.84,1.84,0,0,0-2,1.67c0,1.37,1.31,1.45,3.7,2.1,1.95.58,3.84.94,5.36,2.39a6.43,6.43,0,0,1,1.95,5,7.89,7.89,0,0,1-1.95,5.22,8.86,8.86,0,0,1-6.74,2.75c-5.14,0-8.47-2.61-9.41-7.17Z" transform="translate(0 -0.62)"/><polygon class="cls-3" points="29.11 52.35 29.11 64.08 22.09 52.35 15.28 52.35 15.21 75.6 21.22 75.6 21.22 62.13 29.25 75.6 34.9 75.6 34.9 52.35 29.11 52.35"/><path class="cls-3" d="M11.5,95.4V90.21l-.1-1.41h3.7l.07,1.37a2.67,2.67,0,0,1,.76-.84A2.7,2.7,0,0,1,17,88.9a8,8,0,0,1,.92-.14,7.41,7.41,0,0,1,.84,0v2.11l-.81,0c-1.77,0-2.65.6-2.65,1.78v2.8Z" transform="translate(0 -0.62)"/><path class="cls-3" d="M36.53,95.4H32.89a3,3,0,0,1-.13-1,4.6,4.6,0,0,1-3.33,1.08A5.17,5.17,0,0,1,26.75,95a1.71,1.71,0,0,1-.9-1.49q0-2.52,6.93-2.34a1.62,1.62,0,0,0-.23-1,1.2,1.2,0,0,0-1-.36,1.86,1.86,0,0,0-1,.24.77.77,0,0,0-.36.76H26.51a1.75,1.75,0,0,1,.79-1.38,7.93,7.93,0,0,1,4.21-.83,7.59,7.59,0,0,1,3.93.77,1.9,1.9,0,0,1,.88,1.73v3.08A4.71,4.71,0,0,0,36.53,95.4Zm-3.77-3.12-1,0-.83.06a3.48,3.48,0,0,0-.74.15,1.14,1.14,0,0,0-.44.28.63.63,0,0,0-.19.47.74.74,0,0,0,.37.63,1.71,1.71,0,0,0,1,.26,1.74,1.74,0,0,0,1.5-.63A1.76,1.76,0,0,0,32.76,92.28Z" transform="translate(0 -0.62)"/><path class="cls-3" d="M52,85.91h3.81v7.85a14.48,14.48,0,0,0,.1,1.64h-3.6l-.08-1c-.15.14-.29.25-.42.35a6.06,6.06,0,0,1-.6.34,3.82,3.82,0,0,1-1,.33,8.37,8.37,0,0,1-1.4.11,7,7,0,0,1-2.17-.3,3.34,3.34,0,0,1-1.39-.83,3.44,3.44,0,0,1-.71-1.1,3.32,3.32,0,0,1-.22-1.23,2.93,2.93,0,0,1,1.27-2.55,5.73,5.73,0,0,1,3.34-.9,6,6,0,0,1,1.41.16,4.08,4.08,0,0,1,.94.31,6.36,6.36,0,0,1,.74.46ZM50.14,94.1a1.81,1.81,0,0,0,1.45-.56,2.22,2.22,0,0,0,.47-1.47,2.11,2.11,0,0,0-.46-1.42,1.74,1.74,0,0,0-1.42-.55,2.08,2.08,0,0,0-1,.22,1.36,1.36,0,0,0-.6.56,3.17,3.17,0,0,0-.25.65,2.36,2.36,0,0,0-.07.58,2.88,2.88,0,0,0,.06.59,2.5,2.5,0,0,0,.24.63,1.39,1.39,0,0,0,.59.56A2.13,2.13,0,0,0,50.14,94.1Z" transform="translate(0 -0.62)"/><path class="cls-3" d="M64.56,87.7V85.93h3.89V87.7Zm0,7.7V88.8h3.81v6.6Z" transform="translate(0 -0.62)"/><path class="cls-3" d="M76.78,92.07a2.89,2.89,0,0,1,1.52-2.53,8.35,8.35,0,0,1,4.43-1,9.13,9.13,0,0,1,4.24.86A2.77,2.77,0,0,1,88.6,92a3,3,0,0,1-1.48,2.62,7.83,7.83,0,0,1-4.19,1,9,9,0,0,1-4.69-1A2.79,2.79,0,0,1,76.78,92.07Zm4,0a2.31,2.31,0,0,0,.48,1.56,1.89,1.89,0,0,0,1.48.53c1.32,0,2-.7,2-2.09S84,90,82.73,90,80.73,90.68,80.73,92.09Z" transform="translate(0 -0.62)"/></svg>